# xmcd
#
# Track frame offsets: 
#        150
#        18723
#        38271
#        60444
#        76467
#        103740
#        138513
#        161211
#        183234
#        211932
#        238905
#
# Disc length: 3518 seconds
#
# Revision: 0
# Processed by: cddbd v1.5.2PL0 Copyright (c) Steve Scherf et al.
# Submitted via: ExactAudioCopy v1.0b4
#
DISCID=900dbc0b
DTITLE=Charlie Musselwhite - I Ain't Lying
DYEAR=2015
DGENRE=Blues
TTITLE0=Good Blues Tonight
TTITLE1=Done Somebody Wrong
TTITLE2=Long Lean Lanky Mama
TTITLE3=Always Be My Friend
TTITLE4=My Kinda Gal
TTITLE5=Blues Why Do You Worry Me
TTITLE6=If I should have bad luck
TTITLE7=300 Miles To Go
TTITLE8=Long Leg Woman
TTITLE9=Cristo Redentor
TTITLE10=Good Blues Tonight (Unedited)
EXTD=
EXTT0=
EXTT1=
EXTT2=
EXTT3=
EXTT4=
EXTT5=
EXTT6=
EXTT7=
EXTT8=
EXTT9=
EXTT10=
PLAYORDER=
